<?xml version="1.0" encoding="utf-8" ?>
<svg xmlns="http://www.w3.org/2000/svg" xmlns:xlink="http://www.w3.org/1999/xlink" width="1024" height="1024">
	<path fill="#087A3E" d="M174.783 646.078Q234.453 665.892 294.397 684.862C323.952 694.249 354.054 702.724 383.2 713.288Q409.376 722.875 434.719 734.485Q460.062 746.096 484.416 759.659C493.853 764.792 503.411 769.798 512.604 775.359C527.778 765.132 543.794 756.529 560.102 748.275C615.313 720.33 674.24 700.53 733.627 683.54C764.307 674.762 794.948 666.427 825.126 655.994C832.727 653.367 840.53 650.927 847.981 647.907C844.191 669.021 839.116 690.391 831.581 710.51C808.345 772.547 763.362 827.391 709.209 865.091C652.365 904.665 581.496 924.136 512.677 924.449Q509.193 924.473 505.709 924.427Q502.225 924.382 498.743 924.266Q495.26 924.151 491.781 923.965Q488.302 923.78 484.827 923.525Q481.352 923.27 477.883 922.945Q474.414 922.62 470.952 922.226Q467.49 921.832 464.037 921.369Q460.584 920.905 457.14 920.372Q453.697 919.84 450.265 919.238Q446.833 918.637 443.414 917.966Q439.995 917.296 436.59 916.558Q433.185 915.819 429.795 915.012Q426.406 914.205 423.033 913.331Q419.661 912.456 416.306 911.514Q412.952 910.572 409.617 909.563Q406.282 908.554 402.968 907.478Q399.654 906.402 396.362 905.261Q393.07 904.119 389.802 902.911Q386.534 901.703 383.291 900.43Q380.047 899.157 376.83 897.819Q373.613 896.482 370.423 895.08Q367.233 893.678 364.072 892.212Q360.911 890.746 357.781 889.218Q354.65 887.689 351.55 886.098Q348.45 884.506 345.383 882.853Q342.316 881.2 339.283 879.486Q336.249 877.772 333.251 875.997Q330.253 874.222 327.29 872.388Q324.328 870.554 321.403 868.66Q318.478 866.767 315.592 864.815Q312.706 862.863 309.859 860.854Q307.013 858.845 304.207 856.779C236.476 806.767 187.451 729.746 174.783 646.078ZM257.702 734.395C267.975 738.362 278.622 741.311 288.857 745.369C355.096 771.632 419.611 805.168 473.894 851.748Q486.294 862.412 497.448 874.373C502.384 879.703 507.016 885.695 512.411 890.538C517.686 883.12 525.934 875.568 532.411 869.107C583.363 818.276 649.317 780.831 714.761 751.8Q728.675 745.59 742.922 740.186C749.257 737.833 763.926 734.449 768.449 731.291L767.643 731.743L767.569 731.338C751.134 735.712 735.041 741.039 718.942 746.549C674.061 761.91 630.194 780.408 590.181 806.166Q574.806 816.155 560.261 827.318Q545.716 838.48 532.089 850.747Q525.712 856.403 519.736 862.482C517.832 864.449 515.628 867.776 513.488 869.29C513.031 869.614 512.816 869.624 512.331 869.733L511.313 869.009C495.524 850.483 476.628 835.527 456.826 821.505C398.721 780.363 327.683 748.206 257.702 734.395Z"/>
	<path fill="#37AC3E" d="M174.783 646.078Q234.453 665.892 294.397 684.862C323.952 694.249 354.054 702.724 383.2 713.288Q409.376 722.875 434.719 734.485Q460.062 746.096 484.416 759.659C493.853 764.792 503.411 769.798 512.604 775.359C510.798 783.938 511.904 794.497 511.954 803.269L512.122 848.711C512.133 855.073 512.961 862.905 511.313 869.009C495.524 850.483 476.628 835.527 456.826 821.505C398.721 780.363 327.683 748.206 257.702 734.395C267.975 738.362 278.622 741.311 288.857 745.369C355.096 771.632 419.611 805.168 473.894 851.748Q486.294 862.412 497.448 874.373C502.384 879.703 507.016 885.695 512.411 890.538C512.583 901.817 512.172 913.189 512.677 924.449Q509.193 924.473 505.709 924.427Q502.225 924.382 498.743 924.266Q495.26 924.151 491.781 923.965Q488.302 923.78 484.827 923.525Q481.352 923.27 477.883 922.945Q474.414 922.62 470.952 922.226Q467.49 921.832 464.037 921.369Q460.584 920.905 457.14 920.372Q453.697 919.84 450.265 919.238Q446.833 918.637 443.414 917.966Q439.995 917.296 436.59 916.558Q433.185 915.819 429.795 915.012Q426.406 914.205 423.033 913.331Q419.661 912.456 416.306 911.514Q412.952 910.572 409.617 909.563Q406.282 908.554 402.968 907.478Q399.654 906.402 396.362 905.261Q393.07 904.119 389.802 902.911Q386.534 901.703 383.291 900.43Q380.047 899.157 376.83 897.819Q373.613 896.482 370.423 895.08Q367.233 893.678 364.072 892.212Q360.911 890.746 357.781 889.218Q354.65 887.689 351.55 886.098Q348.45 884.506 345.383 882.853Q342.316 881.2 339.283 879.486Q336.249 877.772 333.251 875.997Q330.253 874.222 327.29 872.388Q324.328 870.554 321.403 868.66Q318.478 866.767 315.592 864.815Q312.706 862.863 309.859 860.854Q307.013 858.845 304.207 856.779C236.476 806.767 187.451 729.746 174.783 646.078Z"/>
	<defs>
		<linearGradient id="gradient_0" gradientUnits="userSpaceOnUse" x1="572.10828" y1="359.94699" x2="409.52716" y2="694.95477">
			<stop offset="0" stop-color="#0C823E"/>
			<stop offset="1" stop-color="#0EB236"/>
		</linearGradient>
	</defs>
	<path fill="url(#gradient_0)" d="M804.085 470.644L804.306 470.888C805.157 474.986 801.389 488.417 800.222 493.077C782.579 563.538 737.54 627.894 674.936 665.291C602.511 708.555 505.975 717.392 425.048 696.836C348.617 677.422 293.517 633.792 253.426 566.462C236.288 536.668 223.736 504.983 219.026 470.796C228.137 472.854 237.102 475.98 246.038 478.703Q262.746 483.718 279.533 488.465C332.521 503.694 385.734 519.511 436.581 541.008Q455.933 549.212 474.783 558.514Q493.632 567.815 511.917 578.182C534.01 565.881 555.834 554.149 579.111 544.137C632.621 521.121 688.486 505.662 744.237 489.258Q774.291 480.368 804.085 470.644ZM511.156 664.271C505.816 655.535 497.154 648.014 489.693 641.056C442.807 597.331 371.913 562.269 309.826 547.228C302.467 545.445 294.709 543.586 287.161 542.933C298.29 547.031 309.775 550.047 320.904 554.261C367.97 572.083 412.687 595.431 452.75 626.012Q460.041 631.536 467.044 637.42Q474.046 643.305 480.743 649.535Q487.441 655.765 493.815 662.325Q500.189 668.885 506.224 675.759C507.304 676.969 509.97 680.611 511.53 680.127L512.172 681.084C513.338 681.012 513.968 680.299 514.768 679.491C518.992 675.227 522.769 670.407 526.871 666.007C533.316 659.096 540.265 652.533 547.262 646.184C602.755 595.832 672.02 563.087 743.544 542.641L743.685 542.523L743.618 542.138C724.812 544.903 702.745 551.54 684.655 557.606C633.82 574.654 582.691 599.328 541.818 634.534C531.327 643.57 521.907 653.314 512.695 663.634C511.397 669.303 511.275 674.32 511.53 680.127C509.585 675.195 510.933 669.439 511.156 664.271Z"/>
	<path fill="#9BCE34" d="M512.451 518.481C489.6 518.353 466.214 516.148 443.876 511.223C386.282 498.525 333.22 464.704 301.328 414.6Q298.573 410.186 296.003 405.662Q293.433 401.137 291.052 396.511Q288.671 391.884 286.483 387.164Q284.295 382.443 282.303 377.635Q280.312 372.828 278.521 367.943Q276.73 363.057 275.142 358.102Q273.555 353.147 272.173 348.131Q270.791 343.114 269.618 338.045C268.908 334.992 267.033 329.728 267.683 326.796L268.324 326.925C279.478 327.512 298.249 334.089 309.656 336.96C363.674 350.552 417.071 366.805 467.626 390.452C482.832 397.564 496.942 406.654 511.936 414.125C520.721 408.237 530.243 403.314 539.62 398.452C601.664 366.283 676.201 346.662 744.101 330.123C748.379 328.718 752.735 327.754 757.122 326.761C741.209 391.659 705.057 450.281 647.124 485.481C605.816 510.579 560.098 517.421 512.451 518.481ZM691.655 391.136C678.484 392.11 664.535 395.777 651.808 399.294C600.343 413.517 563.965 434.028 525.214 470.381C522.627 473.205 515.725 481.942 512.428 482.857C509.414 480.225 506.621 477.383 503.802 474.548C497.117 469.039 491.253 462.557 484.727 456.852C447.872 427.848 410.526 410.079 365.906 395.558C355.725 392.245 344.429 388.132 333.786 386.763L333.582 386.938C387.88 406.673 443.332 430.782 486.213 470.597C495.524 479.243 503.424 488.988 511.948 498.358C522.877 486.146 533.864 474.123 546.247 463.346C576.905 436.663 619.963 413.901 658.27 400.679C669.222 396.899 680.477 394.149 691.655 391.136Z"/>
	<path fill="#37AC3E" d="M744.101 330.123C748.379 328.718 752.735 327.754 757.122 326.761C741.209 391.659 705.057 450.281 647.124 485.481C605.816 510.579 560.098 517.421 512.451 518.481C512.674 511.764 513.208 505 511.948 498.358C522.877 486.146 533.864 474.123 546.247 463.346C576.905 436.663 619.963 413.901 658.27 400.679C669.222 396.899 680.477 394.149 691.655 391.136C678.484 392.11 664.535 395.777 651.808 399.294C600.343 413.517 563.965 434.028 525.214 470.381C522.627 473.205 515.725 481.942 512.428 482.857C511.454 474.782 511.786 466.394 511.878 458.267C512.043 443.484 512.6 428.912 511.936 414.125C520.721 408.237 530.243 403.314 539.62 398.452C601.664 366.283 676.201 346.662 744.101 330.123Z"/>
	<path fill="#087A3E" d="M511.936 414.125C520.721 408.237 530.243 403.314 539.62 398.452C601.664 366.283 676.201 346.662 744.101 330.123C743.956 331.506 744.047 331.686 742.884 332.57C739.188 335.382 733.853 337.174 729.608 339.108C718.935 343.97 708.124 348.485 697.565 353.599C647.285 377.951 579.604 412.343 540.944 452.056C537.231 455.87 526.437 464.949 525.322 469.73C525.272 469.945 525.25 470.164 525.214 470.381C522.627 473.205 515.725 481.942 512.428 482.857C511.454 474.782 511.786 466.394 511.878 458.267C512.043 443.484 512.6 428.912 511.936 414.125Z"/>
	<defs>
		<linearGradient id="gradient_1" gradientUnits="userSpaceOnUse" x1="268.56998" y1="337.33194" x2="523.92279" y2="450.95859">
			<stop offset="0" stop-color="#008729"/>
			<stop offset="1" stop-color="#12B134"/>
		</linearGradient>
	</defs>
	<path fill="url(#gradient_1)" d="M268.324 326.925C279.478 327.512 298.249 334.089 309.656 336.96C363.674 350.552 417.071 366.805 467.626 390.452C482.832 397.564 496.942 406.654 511.936 414.125C512.6 428.912 512.043 443.484 511.878 458.267C511.786 466.394 511.454 474.782 512.428 482.857C509.414 480.225 506.621 477.383 503.802 474.548C497.117 469.039 491.253 462.557 484.727 456.852L485.738 454.517C454.629 419.447 379.763 377.993 336.129 358.173C322.984 352.202 274.957 333.893 268.324 326.925Z"/>
	<path fill="#9BCE34" d="M485.738 454.517C489.703 457.645 503.391 468.921 503.823 474.105C503.836 474.253 503.809 474.4 503.802 474.548C497.117 469.039 491.253 462.557 484.727 456.852L485.738 454.517Z"/>
	<path fill="#9BCE34" d="M313.68 201.872L337.84 209.418Q355.598 214.195 373.127 219.757Q390.655 225.319 407.919 231.656Q425.182 237.992 442.147 245.089Q459.112 252.187 475.744 260.032C483.961 263.97 492.849 267.589 500.66 272.264Q503.671 273.291 506.549 274.646Q509.428 276.002 512.137 277.669C516.673 275.769 521.121 273.279 525.578 271.174C535.047 265.611 545.698 261.232 555.686 256.633C598.362 236.986 642.611 222 687.671 208.839C695.608 206.192 703.812 203.925 711.96 202.025C696.576 256.514 669.765 312.81 618.244 341.486C586.108 359.373 548.918 365.81 512.511 366.125C470.796 365.867 427.348 357.523 392.32 333.694C347.119 302.947 323.495 254.366 313.68 201.872ZM512.282 348.058C537.153 317.971 577.076 289.906 612.443 273.626C623.91 268.349 635.953 264.66 647.433 259.576L647.987 259.327C636.005 261.055 625.214 265.294 613.954 269.557C569.662 286.329 546.701 303.14 512.221 334.843C512.059 334.732 511.896 334.623 511.736 334.51C502.729 328.166 495.659 318.925 486.949 312.009C459.566 290.266 419.739 270.167 386.01 261.035C400.937 269.22 416.584 276 431.523 284.232Q440.442 289.245 449.034 294.802Q457.626 300.358 465.856 306.436Q474.087 312.515 481.926 319.091Q489.764 325.667 497.18 332.717C502.389 337.652 507.228 342.966 512.282 348.058Z"/>
	<path fill="#37AC3E" d="M687.671 208.839C695.608 206.192 703.812 203.925 711.96 202.025C696.576 256.514 669.765 312.81 618.244 341.486C586.108 359.373 548.918 365.81 512.511 366.125C512.594 360.107 512.756 354.062 512.282 348.058C537.153 317.971 577.076 289.906 612.443 273.626C623.91 268.349 635.953 264.66 647.433 259.576L647.987 259.327C636.005 261.055 625.214 265.294 613.954 269.557C569.662 286.329 546.701 303.14 512.221 334.843C512.265 315.798 511.543 296.709 512.137 277.669C516.673 275.769 521.121 273.279 525.578 271.174C535.047 265.611 545.698 261.232 555.686 256.633C598.362 236.986 642.611 222 687.671 208.839Z"/>
	<path fill="#087A3E" d="M525.578 271.174C535.047 265.611 545.698 261.232 555.686 256.633C598.362 236.986 642.611 222 687.671 208.839C687.505 210.194 687.612 210.492 686.489 211.38C682.105 214.85 675.302 216.192 670.186 218.445C630.824 235.784 592.174 253.068 551.159 266.364C545.93 268.059 531.922 272.876 527.187 271.94C526.603 271.825 526.071 271.487 525.578 271.174Z"/>
	<path fill="#37AC3E" d="M337.84 209.418Q355.598 214.195 373.127 219.757Q390.655 225.319 407.919 231.656Q425.182 237.992 442.147 245.089Q459.112 252.187 475.744 260.032C483.961 263.97 492.849 267.589 500.66 272.264C499.174 272.529 497.948 272.596 496.452 272.348C481.809 269.922 463.132 263.511 449.012 258.429C435.216 253.464 342.196 215.363 337.84 209.418Z"/>
	<path fill="#F8BD1E" d="M506.768 100.21Q508.846 100.103 510.925 100.064Q513.005 100.024 515.085 100.052Q517.165 100.079 519.243 100.174Q521.322 100.269 523.395 100.431Q525.469 100.592 527.537 100.821Q529.605 101.05 531.664 101.345Q533.723 101.64 535.771 102.002Q537.82 102.364 539.856 102.791Q541.892 103.219 543.913 103.712Q545.933 104.205 547.937 104.763Q549.941 105.321 551.926 105.944Q553.911 106.566 555.875 107.252Q557.839 107.939 559.779 108.688Q561.72 109.437 563.635 110.249Q565.551 111.06 567.439 111.933Q569.327 112.806 571.186 113.74C611.274 134.01 630.422 164.265 643.969 205.609C630.913 210.442 617.549 214.248 604.417 218.837C575.632 228.895 542.515 242.691 516.494 258.515C514.586 259.607 512.847 260.785 510.62 259.868C507.005 258.378 503.493 256.081 500.074 254.168C493.765 250.638 487.421 247.088 480.903 243.956C449.289 228.763 414.144 214.887 380.07 206.616C385.787 184.585 394.379 163.952 409.393 146.501C434.542 117.269 468.928 103.081 506.768 100.21Z"/>
</svg>
